<svg xmlns="http://www.w3.org/2000/svg" viewBox="0 0 512 512" fill="none">
  <defs>
    <linearGradient id="bg" x1="0" y1="0" x2="0" y2="1">
      <stop offset="0%" stop-color="#6366F1"/>
      <stop offset="100%" stop-color="#4F46E5"/>
    </linearGradient>
    <linearGradient id="accent" x1="0" y1="0" x2="1" y2="1">
      <stop offset="0%" stop-color="#818CF8"/>
      <stop offset="100%" stop-color="#6366F1"/>
    </linearGradient>
  </defs>
  <rect width="512" height="512" rx="96" fill="url(#bg)"/>
  <g transform="translate(256,240)">
    <rect x="-120" y="-80" width="240" height="160" rx="24" fill="url(#accent)" stroke="#A5B4FC" stroke-width="4"/>
    <rect x="-80" y="-48" width="160" height="96" rx="12" fill="#1E1B4B" opacity="0.9"/>
    <rect x="-48" y="-24" width="40" height="8" rx="4" fill="#6366F1" opacity="0.6"/>
    <rect x="8" y="-24" width="56" height="8" rx="4" fill="#A5B4FC" opacity="0.4"/>
    <rect x="-48" y="-8" width="64" height="8" rx="4" fill="#A5B4FC" opacity="0.6"/>
    <rect x="-48" y="8" width="48" height="8" rx="4" fill="#818CF8" opacity="0.5"/>
    <rect x="-48" y="24" width="72" height="8" rx="4" fill="#A5B4FC" opacity="0.4"/>
    <line x1="-180" y1="0" x2="-120" y2="0" stroke="#6366F1" stroke-width="20" stroke-linecap="round"/>
    <line x1="120" y1="0" x2="180" y2="0" stroke="#6366F1" stroke-width="20" stroke-linecap="round"/>
    <circle cx="-160" cy="0" r="16" fill="#1E1B4F" stroke="#A5B4FC" stroke-width="3"/>
    <circle cx="160" cy="0" r="16" fill="#1E1B4F" stroke="#A5B4FC" stroke-width="3"/>
  </g>
  <g transform="translate(256,480)">
    <text text-anchor="middle" font-family="system-ui,sans-serif" font-size="28" font-weight="700" fill="#A5B4FC" letter-spacing="4">USB STATION</text>
  </g>
</svg>
