<svg xmlns="http://www.w3.org/2000/svg" viewBox="0 0 800 480" fill="none">
  <rect width="800" height="480" fill="#0F0F23"/>
  <rect x="32" y="24" width="736" height="432" rx="16" fill="#1A1A2E" stroke="#2D2D4E" stroke-width="2"/>
  <!-- Sidebar -->
  <rect x="48" y="40" width="200" height="400" rx="8" fill="#1E1B4B" opacity="0.8"/>
  <rect x="64" y="56" width="168" height="8" rx="4" fill="#6366F1"/>
  <rect x="64" y="72" width="80" height="6" rx="3" fill="#4F46E5" opacity="0.5"/>
  <rect x="64" y="104" width="140" height="10" rx="3" fill="#2D2D4E"/>
  <rect x="64" y="126" width="140" height="10" rx="3" fill="#2D2D4E"/>
  <rect x="64" y="148" width="140" height="10" rx="3" fill="#2D2D4E"/>
  <rect x="64" y="170" width="140" height="10" rx="3" fill="#6366F1" opacity="0.3"/>
  <rect x="64" y="192" width="140" height="10" rx="3" fill="#2D2D4E"/>
  <rect x="64" y="214" width="140" height="10" rx="3" fill="#2D2D4E"/>
  <!-- Dashboard header -->
  <rect x="268" y="40" width="160" height="8" rx="4" fill="#E2E8F0" opacity="0.9"/>
  <rect x="268" y="54" width="240" height="6" rx="3" fill="#64748B" opacity="0.5"/>
  <!-- Stat cards -->
  <rect x="268" y="80" width="148" height="64" rx="8" fill="#1E1B4B" border="#2D2D4E" stroke-width="1"/>
  <rect x="280" y="90" width="60" height="6" rx="3" fill="#64748B" opacity="0.6"/>
  <rect x="280" y="104" width="80" height="12" rx="4" fill="#E2E8F0" opacity="0.8"/>
  <rect x="428" y="80" width="148" height="64" rx="8" fill="#1E1B4B"/>
  <rect x="440" y="90" width="60" height="6" rx="3" fill="#64748B" opacity="0.6"/>
  <rect x="440" y="104" width="80" height="12" rx="4" fill="#E2E8F0" opacity="0.8"/>
  <rect x="588" y="80" width="148" height="64" rx="8" fill="#1E1B4B"/>
  <rect x="600" y="90" width="60" height="6" rx="3" fill="#64748B" opacity="0.6"/>
  <rect x="600" y="104" width="80" height="12" rx="4" fill="#E2E8F0" opacity="0.8"/>
  <!-- Tables -->
  <rect x="268" y="164" width="336" height="150" rx="8" fill="#1A1A2E" stroke="#2D2D4E" stroke-width="1"/>
  <rect x="280" y="176" width="80" height="6" rx="3" fill="#6366F1"/>
  <rect x="280" y="196" width="312" height="1" fill="#2D2D4E"/>
  <rect x="280" y="212" width="40" height="6" rx="3" fill="#4F46E5" opacity="0.6"/>
  <rect x="330" y="212" width="120" height="6" rx="3" fill="#64748B" opacity="0.4"/>
  <rect x="280" y="232" width="40" height="6" rx="3" fill="#4F46E5" opacity="0.6"/>
  <rect x="330" y="232" width="100" height="6" rx="3" fill="#64748B" opacity="0.4"/>
  <rect x="280" y="252" width="40" height="6" rx="3" fill="#4F46E5" opacity="0.6"/>
  <rect x="330" y="252" width="90" height="6" rx="3" fill="#64748B" opacity="0.4"/>
  <rect x="280" y="272" width="40" height="6" rx="3" fill="#4F46E5" opacity="0.6"/>
  <rect x="330" y="272" width="140" height="6" rx="3" fill="#64748B" opacity="0.4"/>
  <rect x="280" y="292" width="40" height="6" rx="3" fill="#4F46E5" opacity="0.6"/>
  <rect x="330" y="292" width="110" height="6" rx="3" fill="#64748B" opacity="0.4"/>
  <!-- Right panel -->
  <rect x="620" y="164" width="148" height="100" rx="8" fill="#1A1A2E" stroke="#2D2D4E" stroke-width="1"/>
  <rect x="632" y="176" width="60" height="6" rx="3" fill="#6366F1"/>
  <rect x="632" y="196" width="124" height="1" fill="#2D2D4E"/>
  <!-- USB icon in panel -->
  <rect x="668" y="212" width="52" height="32" rx="6" fill="#6366F1" opacity="0.3"/>
  <rect x="680" y="220" width="28" height="16" rx="3" fill="#6366F1" opacity="0.6"/>
  <rect x="684" y="226" width="8" height="4" rx="2" fill="#E2E8F0" opacity="0.8"/>
  <!-- Bottom bar -->
  <rect x="268" y="400" width="500" height="24" rx="6" fill="#2D2D4E" opacity="0.3"/>
  <circ cx="280" cy="412" r="4" fill="#22C55E"/>
  <rect x="294" y="408" width="60" height="6" rx="3" fill="#64748B" opacity="0.6"/>
  <!-- Flash animation elements -->
  <rect x="444" y="190" width="100" height="4" rx="2" fill="#22C55E" opacity="0.6">
    <animate attributeName="width" values="100;140;100" dur="2s" repeatCount="indefinite"/>
  </rect>
</svg>
